# xmcd CD database file
#
# Track frame offsets:
#	150
#	35961
#	60271
#	89032
#	120917
#	150349
#	181152
#	220576
#	252898
#
# Disc length: 3741 seconds
#
# Revision: 0
# Processed by: cddbd v1.5.2PL0 Copyright (c) Steve Scherf et al.
# Submitted via: CDex 1.51
#
DISCID=6c0e9b09
DTITLE=Color and Talea - Project Mayhem
DYEAR=2005
DGENRE=Jazz
TTITLE0=Project Mayhem
TTITLE1=woR
TTITLE2=Infestation of Peanut Butter By Fungus
TTITLE3=Mista Barista
TTITLE4=Launcho
TTITLE5=Black a la Turk
TTITLE6=Decomposition #4
TTITLE7=Refocused
TTITLE8=Flying Ruckus
EXTD=YEAR: 2005
EXTT0=
EXTT1=
EXTT2=
EXTT3=
EXTT4=
EXTT5=
EXTT6=
EXTT7=
EXTT8=
PLAYORDER=
